<?xml version="1.0" encoding="UTF-8"?>
<svg version="1.1" xmlns="http://www.w3.org/2000/svg" width="88" height="163">
<path d="M0 0 C3.44416862 -0.28867309 5.42931249 -0.34793529 8.421875 1.4765625 C22.63020524 14.58827665 35.49856668 33.39843724 37.2734375 53.0234375 C37.74752202 67.20950503 32.53438018 79.12050528 23.25 89.6875 C17.38218349 95.82520124 11.42801975 101.20963498 3.91796875 105.24609375 C3.20012207 105.63200684 2.48227539 106.01791992 1.74267578 106.41552734 C0.32146763 107.16321334 -1.11099074 107.89000564 -2.55517578 108.59228516 C-6.33439467 110.5477523 -7.80027344 111.64909701 -9.9765625 115.47265625 C-12.34318092 123.62936021 -9.9075823 130.73801723 -6 138 C-3.18381363 143.0376926 -0.26119834 148.00265156 2.8203125 152.8828125 C3.37460937 153.76710937 3.92890625 154.65140625 4.5 155.5625 C5.25796875 156.74005859 5.25796875 156.74005859 6.03125 157.94140625 C7 160 7 160 6 163 C-2.43846614 163.56007519 -8.86517945 158.76269009 -15.09375 153.4375 C-17.65936073 151.15224564 -20.13428817 148.78109397 -22.5859375 146.37451172 C-23.90767652 145.08974123 -25.26522142 143.84209647 -26.625 142.59765625 C-36.84972748 132.9959981 -44.46685838 121.2826988 -49 108 C-49.36544922 106.99646484 -49.36544922 106.99646484 -49.73828125 105.97265625 C-53.45042325 94.02814492 -51.14045045 80.98055734 -45.4921875 70.09375 C-36.79590589 55.69432557 -24.93200303 45.74279218 -10.19921875 38.0546875 C-5.72888311 35.18362945 -3.10840219 32.21016724 -0.6953125 27.3984375 C0.37869996 22.14905077 0.20678226 16.96601055 0.125 11.625 C0.11597656 10.50738281 0.10695312 9.38976562 0.09765625 8.23828125 C0.07418346 5.49196538 0.04134728 2.74609528 0 0 Z " fill="#2384C6" transform="translate(51,0)"/>
</svg>
